:FULLY-SPECIFIED
:FORCE-ALL-JOINTS-BE-3DOF
:DEGREES
272
root 8.31725 16.1935 -25.2039 21.5068 68.9614 19.2731
lfemur -24.4213 7.71172 -22.925
ltibia 40.6019 0 0
lfoot -6.16408 -21.3854 0
ltoes 64.1261 0 0
rfemur -52.2509 -6.09415 12.5377
rtibia 85.8334 0 0
rfoot 8.60088 0.445248 0
rtoes 1.71704 0 0
lowerback 6.45629 -4.36954 -2.61573
upperback 1.44943 -5.99644 -1.97865
thorax -2.0535 -2.96081 -0.0956176
lowerneck -5.3344 -11.1873 -4.60034
upperneck 0.800476 -14.7752 5.21483
head 1.94506 -7.30038 1.85178
lclavicle 3.92822e-14 1.22424e-14 0
lhumerus -44.9648 -35.6205 107.167
lradius 59.2671 0 0
lwrist 20.211 0 0
lhand 18.7741 14.7793 0
lfingers 7.12502 0 0
lthumb 43.389 38.8666 0
rclavicle 3.92822e-14 1.22424e-14 0
rhumerus -53.7087 2.34432 -94.4504
rradius 43.029 0 0
rwrist 24.3151 0 0
rhand -17.5972 -0.57425 0
rfingers 7.12502 0 0
rthumb 8.64161 -750.058 0
273
root 8.37837 16.1679 -25.1647 22.2691 69.902 20.3633
lfemur -24.2009 7.33586 -23.0094
ltibia 41.2174 0 0
lfoot -6.25615 -21.9959 0
ltoes 63.8891 0 0
rfemur -53.464 -5.75197 13.5188
rtibia 84.2204 0 0
rfoot 7.98627 -0.0724646 0
rtoes 1.5465 0 0
lowerback 6.59714 -4.49091 -2.66573
upperback 1.59441 -6.15987 -2.05521
thorax -1.98279 -3.04198 -0.129823
lowerneck -5.15724 -11.2539 -4.72028
upperneck 0.735086 -14.8687 5.41921
head 1.92587 -7.34663 1.94093
lclavicle 3.50054e-14 1.21166e-14 0
lhumerus -44.7747 -35.6304 106.907
lradius 59.1919 0 0
lwrist 20.2625 0 0
lhand 19.263 14.9376 0
lfingers 7.12502 0 0
lthumb 43.8464 38.8656 0
rclavicle 3.50054e-14 1.21166e-14 0
rhumerus -54.4728 3.15976 -95.7544
rradius 44.5784 0 0
rwrist 23.8771 0 0
rhand -21.1707 1.46268 0
rfingers 7.12502 0 0
rthumb 5.2001 -748.266 0
274
root 8.4395 16.1423 -25.1255 23.0313 70.8426 21.4534
lfemur -23.9806 6.96001 -23.0939
ltibia 41.8329 0 0
lfoot -6.34822 -22.6063 0
ltoes 63.6522 0 0
rfemur -54.677 -5.40979 14.4999
rtibia 82.6074 0 0
rfoot 7.37167 -0.590177 0
rtoes 1.37596 0 0
lowerback 6.738 -4.61229 -2.71573
upperback 1.7394 -6.3233 -2.13178
thorax -1.91208 -3.12316 -0.164029
lowerneck -4.98008 -11.3206 -4.84023
upperneck 0.669695 -14.9622 5.62359
head 1.90668 -7.39287 2.03008
lclavicle 3.07285e-14 1.19908e-14 0
lhumerus -44.5846 -35.6402 106.647
lradius 59.1166 0 0
lwrist 20.3141 0 0
lhand 19.7519 15.0959 0
lfingers 7.12502 0 0
lthumb 44.3039 38.8645 0
rclavicle 3.07285e-14 1.19908e-14 0
rhumerus -55.2369 3.9752 -97.0583
rradius 46.1277 0 0
rwrist 23.439 0 0
rhand -24.7442 3.49961 0
rfingers 7.12502 0 0
rthumb 1.75858 -746.473 0
275
root 8.51076 16.0963 -25.073 24.4935 71.6801 23.5786
lfemur -23.4068 6.81004 -23.1119
ltibia 42.7096 0 0
lfoot -7.54982 -23.1723 0
ltoes 60.7131 0 0
rfemur -54.1443 -4.80203 14.7151
rtibia 80.0686 0 0
rfoot 7.78366 -0.382537 0
rtoes 2.57491 0 0
lowerback 6.82155 -4.75423 -2.93435
upperback 2.0011 -6.5118 -2.25092
thorax -1.6721 -3.21916 -0.16186
lowerneck -4.81171 -11.4167 -4.93211
upperneck 0.758191 -15.103 5.7681
head 1.93721 -7.46335 2.08947
lclavicle 1.83483e-14 5.4502e-15 0
lhumerus -44.5597 -36.1988 106.587
lradius 59.2456 0 0
lwrist 20.2634 0 0
lhand 19.5308 15.2459 0
lfingers 7.12502 0 0
lthumb 44.0974 39.0898 0
rclavicle 1.83483e-14 5.4502e-15 0
rhumerus -56.0167 4.3457 -97.4076
rradius 47.9621 0 0
rwrist 22.862 0 0
rhand -25.3289 3.6661 0
rfingers 7.12502 0 0
rthumb 1.19391 -746.306 0
276
root 8.58203 16.0502 -25.0204 25.9558 72.5177 25.7038
lfemur -22.8331 6.66007 -23.13
ltibia 43.5862 0 0
lfoot -8.75141 -23.7382 0
ltoes 57.774 0 0
rfemur -53.6116 -4.19426 14.9303
rtibia 77.5299 0 0
rfoot 8.19565 -0.174898 0
rtoes 3.77387 0 0
lowerback 6.90511 -4.89618 -3.15297
upperback 2.2628 -6.70031 -2.37007
thorax -1.43212 -3.31517 -0.159692
lowerneck -4.64334 -11.5129 -5.02399
upperneck 0.846688 -15.2437 5.9126
head 1.96775 -7.53382 2.14886
lclavicle 5.96807e-15 -1.0904e-15 0
lhumerus -44.5348 -36.7573 106.527
lradius 59.3746 0 0
lwrist 20.2128 0 0
lhand 19.3097 15.3958 0
lfingers 7.12502 0 0
lthumb 43.891 39.315 0
rclavicle 5.96807e-15 -1.0904e-15 0
rhumerus -56.7965 4.7162 -97.757
rradius 49.7965 0 0
rwrist 22.285 0 0
rhand -25.9135 3.83258 0
rfingers 7.12502 0 0
rthumb 0.629249 -746.139 0
277
root 8.65329 16.0042 -24.9679 27.418 73.3552 27.829
lfemur -22.2593 6.5101 -23.148
ltibia 44.4629 0 0
lfoot -9.95301 -24.3042 0
ltoes 54.8349 0 0
rfemur -53.0789 -3.5865 15.1455
rtibia 74.9911 0 0
rfoot 8.60764 0.0327417 0
rtoes 4.97282 0 0
lowerback 6.98866 -5.03812 -3.37159
upperback 2.5245 -6.88881 -2.48921
thorax -1.19214 -3.41117 -0.157523
lowerneck -4.47497 -11.609 -5.11587
upperneck 0.935184 -15.3845 6.05711
head 1.99828 -7.6043 2.20825
lclavicle -6.41214e-15 -7.631e-15 0
lhumerus -44.5099 -37.3159 106.467
lradius 59.5036 0 0
lwrist 20.1621 0 0
lhand 19.0886 15.5458 0
lfingers 7.12502 0 0
lthumb 43.6845 39.5403 0
rclavicle -6.41214e-15 -7.631e-15 0
rhumerus -57.5763 5.0867 -98.1063
rradius 51.6309 0 0
rwrist 21.708 0 0
rhand -26.4982 3.99907 0
rfingers 7.12502 0 0
rthumb 0.0645829 -745.972 0
278
root 8.72455 15.9582 -24.9153 28.8802 74.1927 29.9541
lfemur -21.6855 6.36013 -23.1661
ltibia 45.3395 0 0
lfoot -11.1546 -24.8702 0
ltoes 51.8958 0 0
rfemur -52.5462 -2.97873 15.3607
rtibia 72.4523 0 0
rfoot 9.01963 0.240381 0
rtoes 6.17177 0 0
lowerback 7.07221 -5.18006 -3.59022
upperback 2.78619 -7.07732 -2.60835
thorax -0.952166 -3.50718 -0.155355
lowerneck -4.3066 -11.7052 -5.20774
upperneck 1.02368 -15.5252 6.20162
head 2.02882 -7.67477 2.26763
lclavicle -1.87924e-14 -1.41716e-14 0
lhumerus -44.4849 -37.8745 106.408
lradius 59.6326 0 0
lwrist 20.1115 0 0
lhand 18.8675 15.6958 0
lfingers 7.12502 0 0
lthumb 43.478 39.7656 0
rclavicle -1.87924e-14 -1.41716e-14 0
rhumerus -58.3562 5.45719 -98.4557
rradius 53.4654 0 0
rwrist 21.1311 0 0
rhand -27.0828 4.16555 0
rfingers 7.12502 0 0
rthumb -0.500083 -745.804 0
279
root 8.79581 15.9122 -24.8628 30.3424 75.0302 32.0793
lfemur -21.1117 6.21016 -23.1841
ltibia 46.2162 0 0
lfoot -12.3562 -25.4362 0
ltoes 48.9567 0 0
rfemur -52.0135 -2.37097 15.5759
rtibia 69.9135 0 0
rfoot 9.43162 0.448021 0
rtoes 7.37072 0 0
lowerback 7.15576 -5.322 -3.80884
upperback 3.04789 -7.26582 -2.72749
thorax -0.712188 -3.60318 -0.153186
lowerneck -4.13823 -11.8013 -5.29962
upperneck 1.11218 -15.666 6.34613
head 2.05935 -7.74525 2.32702
lclavicle -3.11726e-14 -2.07122e-14 0
lhumerus -44.46 -38.4331 106.348
lradius 59.7616 0 0
lwrist 20.0608 0 0
lhand 18.6464 15.8458 0
lfingers 7.12502 0 0
lthumb 43.2715 39.9909 0
rclavicle -3.11726e-14 -2.07122e-14 0
rhumerus -59.136 5.82769 -98.805
rradius 55.2998 0 0
rwrist 20.5541 0 0
rhand -27.6675 4.33204 0
rfingers 7.12502 0 0
rthumb -1.06475 -745.637 0
280
root 8.86708 15.8661 -24.8102 31.8047 75.8678 34.2045
lfemur -20.538 6.06019 -23.2022
ltibia 47.0928 0 0
lfoot -13.5578 -26.0021 0
ltoes 46.0176 0 0
rfemur -51.4808 -1.7632 15.7911
rtibia 67.3748 0 0
rfoot 9.84361 0.65566 0
rtoes 8.56968 0 0
lowerback 7.23932 -5.46395 -4.02746
upperback 3.30959 -7.45433 -2.84664
thorax -0.472209 -3.69919 -0.151018
lowerneck -3.96986 -11.8975 -5.3915
upperneck 1.20067 -15.8067 6.49063
head 2.08989 -7.81572 2.38641
lclavicle -4.35528e-14 -2.72528e-14 0
lhumerus -44.4351 -38.9916 106.288
lradius 59.8906 0 0
lwrist 20.0102 0 0
lhand 18.4253 15.9957 0
lfingers 7.12502 0 0
lthumb 43.0651 40.2161 0
rclavicle -4.35528e-14 -2.72528e-14 0
rhumerus -59.9158 6.19819 -99.1544
rradius 57.1342 0 0
rwrist 19.9771 0 0
rhand -28.2521 4.49852 0
rfingers 7.12502 0 0
rthumb -1.62941 -745.47 0
281
root 8.93834 15.8201 -24.7577 33.2669 76.7053 36.3297
lfemur -19.9642 5.91022 -23.2202
ltibia 47.9695 0 0
lfoot -14.7594 -26.5681 0
ltoes 43.0785 0 0
rfemur -50.9481 -1.15544 16.0063
rtibia 64.836 0 0
rfoot 10.2556 0.8633 0
rtoes 9.76863 0 0
lowerback 7.32287 -5.60589 -4.24608
upperback 3.57129 -7.64283 -2.96578
thorax -0.232231 -3.79519 -0.148849
lowerneck -3.80149 -11.9936 -5.48338
upperneck 1.28917 -15.9475 6.63514
head 2.12042 -7.8862 2.4458
lclavicle -5.5933e-14 -3.37934e-14 0
lhumerus -44.4102 -39.5502 106.228
lradius 60.0196 0 0
lwrist 19.9595 0 0
lhand 18.2042 16.1457 0
lfingers 7.12502 0 0
lthumb 42.8586 40.4414 0
rclavicle -5.5933e-14 -3.37934e-14 0
rhumerus -60.6956 6.56869 -99.5037
rradius 58.9686 0 0
rwrist 19.4001 0 0
rhand -28.8368 4.66501 0
rfingers 7.12502 0 0
rthumb -2.19408 -745.303 0
282
root 9.00757 15.771 -24.7018 34.8559 77.0566 38.6011
lfemur -19.2478 6.07015 -23.0443
ltibia 48.6476 0 0
lfoot -14.5773 -27.3649 0
ltoes 44.6228 0 0
rfemur -49.6893 -1.19941 16.6157
rtibia 63.2716 0 0
rfoot 9.97451 -1.94646 0
rtoes 14.4317 0 0
lowerback 7.33247 -5.62516 -4.52618
upperback 3.73313 -7.66779 -3.10864
thorax -0.0493094 -3.81188 -0.154121
lowerneck -3.58258 -12.0766 -5.6144
upperneck 1.56039 -16.0816 6.72403
head 2.20434 -7.95433 2.49243
lclavicle -4.73888e-14 -2.64952e-14 0
lhumerus -44.1664 -39.8615 105.907
lradius 60.066 0 0
lwrist 19.3931 0 0
lhand 18.0619 15.7774 0
lfingers 7.12502 0 0
lthumb 42.7254 40.1187 0
rclavicle -4.73888e-14 -2.64952e-14 0
rhumerus -61.7959 7.74515 -99.994
rradius 60.6192 0 0
rwrist 18.9135 0 0
rhand -28.8951 3.07067 0
rfingers 7.12502 0 0
rthumb -2.25043 -746.897 0
